<svg xmlns="http://www.w3.org/2000/svg" viewBox="0 0 528.3 72.7"><defs><style>.cls-1{fill:#fff;}</style></defs><g id="レイヤー_2" data-name="レイヤー 2"><g id="noto_sans_ckj" data-name="noto sans ckj"><rect width="528.3" height="72.7"/><path class="cls-1" d="M43.33,16.7H61.92v3.47H47.42v10.9h12.3V34.5H47.42V49H43.33Z"/><path class="cls-1" d="M65.43,37c0-7.95,5.23-12.56,11.08-12.56S87.58,29.09,87.58,37,82.35,49.53,76.51,49.53,65.43,45,65.43,37Zm18,0c0-5.49-2.81-9.22-6.94-9.22s-6.9,3.73-6.9,9.22,2.77,9.15,6.9,9.15S83.45,42.54,83.45,37Z"/><path class="cls-1" d="M92.06,37c0-7.95,5.41-12.56,11.51-12.56a10.17,10.17,0,0,1,7,2.81l-2.06,2.64a7.07,7.07,0,0,0-4.75-2.11c-4.35,0-7.52,3.73-7.52,9.22s3,9.15,7.39,9.15a8.42,8.42,0,0,0,5.62-2.38L111,46.49a11.54,11.54,0,0,1-7.73,3C96.94,49.53,92.06,45,92.06,37Z"/><path class="cls-1" d="M115.92,40.21V25.09h4V39.73c0,4.43,1.32,6.32,4.48,6.32,2.46,0,4.18-1.18,6.46-4V25.09h4V49h-3.34l-.31-3.73h-.13c-2.24,2.59-4.61,4.31-7.91,4.31C118.16,49.53,115.92,46.27,115.92,40.21Z"/><path class="cls-1" d="M140.22,46.23l2-2.64a10.81,10.81,0,0,0,7.07,2.81c3.17,0,4.7-1.66,4.7-3.73,0-2.46-2.81-3.52-5.44-4.53-3.34-1.23-7-2.85-7-6.9,0-3.78,3.07-6.76,8.26-6.76a12.12,12.12,0,0,1,7.38,2.68l-1.93,2.59a8.76,8.76,0,0,0-5.41-2.11c-3,0-4.43,1.58-4.43,3.43,0,2.28,2.46,3.12,5.14,4.13,3.47,1.32,7.29,2.72,7.29,7.25,0,3.87-3.07,7.08-8.7,7.08A14.39,14.39,0,0,1,140.22,46.23Z"/><path class="cls-1" d="M173.66,16.7h4.09V45.48h14.06V49H173.66Z"/><path class="cls-1" d="M197.52,16.7h4.09V49h-4.09Z"/><path class="cls-1" d="M217.12,20.17h-9.76V16.7H231v3.47h-9.75V49h-4.09Z"/><path class="cls-1" d="M236.72,16.7H255.3v3.47H240.8V30.28H253v3.47H240.8V45.48h15V49H236.72Z"/><path class="cls-1" d="M276.24,46.76h-.13l-.25,1.78h-2.33V23.17h2.9v7l-.1,3.13a8.74,8.74,0,0,1,5.42-2.46c4.5,0,6.92,3.51,6.92,8.8,0,6-3.54,9.37-7.52,9.37A7.69,7.69,0,0,1,276.24,46.76Zm9.4-7.11c0-3.82-1.28-6.4-4.56-6.4-1.46,0-3,.83-4.65,2.39v9.08a6.64,6.64,0,0,0,4.24,1.82C283.54,46.54,285.64,44,285.64,39.65Z"/><path class="cls-1" d="M291.47,55.65l.57-2.32a4.35,4.35,0,0,0,1.31.28c2,0,3.22-1.59,3.92-3.73l.38-1.3L290.7,31.24h3l3.54,9.62c.51,1.5,1.12,3.29,1.66,4.85h.16c.48-1.56,1-3.32,1.46-4.85l3.09-9.62h2.84L300,50c-1.18,3.41-3,6-6.44,6A5.38,5.38,0,0,1,291.47,55.65Z"/><path class="cls-1" d="M315.53,45.48l1.79-2a9,9,0,0,0,6.43,2.9c3.06,0,4.91-1.53,4.91-3.83s-1.69-3.15-3.89-4.14l-3.38-1.47c-2.16-.92-4.74-2.58-4.74-6,0-3.6,3.12-6.21,7.36-6.21a9.58,9.58,0,0,1,6.88,2.9l-1.56,1.88a7.54,7.54,0,0,0-5.32-2.2c-2.65,0-4.37,1.34-4.37,3.44,0,2.26,2,3.12,3.86,3.89l3.34,1.43c2.71,1.18,4.82,2.78,4.82,6.25,0,3.7-3.06,6.63-7.94,6.63A11.16,11.16,0,0,1,315.53,45.48Z"/><path class="cls-1" d="M334.68,39.91c0-5.61,3.8-9.12,7.81-9.12,4.4,0,6.89,3.19,6.89,8.13a11.91,11.91,0,0,1-.13,1.66H337.58c.19,3.69,2.46,6.05,5.74,6.05a7.44,7.44,0,0,0,4.33-1.37l1.06,1.91A10.29,10.29,0,0,1,343,49C338.38,49,334.68,45.61,334.68,39.91Zm12.15-1.44c0-3.47-1.6-5.35-4.31-5.35-2.45,0-4.62,2-5,5.35Z"/><path class="cls-1" d="M352.34,39.91c0-5.61,3.79-9.12,7.81-9.12,4.39,0,6.88,3.19,6.88,8.13a10.55,10.55,0,0,1-.13,1.66H355.24c.19,3.69,2.45,6.05,5.73,6.05a7.49,7.49,0,0,0,4.34-1.37l1.05,1.91A10.29,10.29,0,0,1,360.62,49C356,49,352.34,45.61,352.34,39.91Zm12.14-1.44c0-3.47-1.59-5.35-4.3-5.35-2.46,0-4.62,2-5,5.35Z"/><path class="cls-1" d="M370.06,39.91c0-5.61,3.53-9.12,7.49-9.12a7,7,0,0,1,4.87,2l-.13-3V23.17h2.87V48.54H382.8l-.25-2h-.1A7.7,7.7,0,0,1,377.19,49C372.86,49,370.06,45.68,370.06,39.91Zm12.23,4.24V35.06a6.19,6.19,0,0,0-4.23-1.81c-2.81,0-5,2.67-5,6.63,0,4.17,1.72,6.66,4.78,6.66C379.43,46.54,380.83,45.74,382.29,44.15Z"/><path class="cls-1" d="M398.45,25.15h6.95c4.75,0,8,1.63,8,5.74A5.12,5.12,0,0,1,410,36v.15a5.41,5.41,0,0,1,4.75,5.58c0,4.59-3.64,6.85-8.86,6.85h-7.46Zm6.44,10c4,0,5.64-1.5,5.64-3.86,0-2.74-1.88-3.76-5.51-3.76h-3.61v7.62Zm.6,11.06c4,0,6.38-1.44,6.38-4.59,0-2.9-2.3-4.24-6.38-4.24h-4.08v8.83Z"/><path class="cls-1" d="M419.39,25.15h7.33c4.75,0,8.16,1.72,8.16,6.6a6.33,6.33,0,0,1-5.29,6.56l6,10.23h-3.35l-5.67-9.91h-4.21v9.91h-3Zm6.88,11.09c3.67,0,5.67-1.46,5.67-4.49s-2-4.18-5.67-4.18h-3.92v8.67Z"/><path class="cls-1" d="M444.5,25.15h3.28l7.94,23.39H452.6l-2.24-7.13h-8.54l-2.26,7.13h-3Zm-1.94,13.9h7.07l-1.11-3.57c-.87-2.65-1.6-5.2-2.36-7.91H446c-.73,2.74-1.5,5.26-2.33,7.91Z"/><path class="cls-1" d="M459,25.15h3V48.54h-3Z"/><path class="cls-1" d="M468.34,25.15h3.06l8.51,14.76,2.48,4.81h.16c-.16-2.36-.38-5-.38-7.39V25.15H485V48.54h-3l-8.51-14.75L470.92,29h-.13c.13,2.35.35,4.84.35,7.29V48.54h-2.8Z"/></g></g></svg>